{"title":"The.Gunman.2015.WEBRip.480p.x264.AAC-VYTO [P2PDL]","uid":12036773,"size":426175783,"categoryP":"video","categoryS":"movies","magnet":"?xt=urn:btih:1cd5bdfbc74afdba37369862e14fca2ddba349b6&amp;dn=The.Gunman.2015.WEBRip.480p.x264.AAC-VYTO+%5BP2PDL%5D&amp;tr=udp%3A%2F%2Ftracker.openbittorrent.com%3A80&amp;tr=udp%3A%2F%2Fopen.demonii.com%3A1337&amp;tr=udp%3A%2F%2Ftracker.coppersurfer.tk%3A6969&amp;tr=udp%3A%2F%2Fexodus.desync.com%3A6969","seeders":4,"leechers":2,"uploader":"ValidusVyto","files":7,"time":1434696676,"description":"The.Gunman.2015.WEBRip.480p.x264.AAC-VYTO\n\n\nGenre: Action, Crime, Drama\nIMDb: http://www.imdb.com/title/tt2515034/\n\nFormat                         : MPEG-4\nFile size                      : 401 MiB\nDuration                       : 1h 55mn\nOverall bit rate               : 485 Kbps\n\nVideo\nFormat                         : AVC\nBit rate                       : 442 Kbps\nWidth                          : 720 pixels\nHeight                         : 296 pixels\nDisplay aspect ratio           : 2.40:1\nFrame rate mode                : Constant\nFrame rate                     : 23.976 fps\nBit depth                      : 8 bits\nStream size                    : 365 MiB (91%)\nWriting library                : x264 core 146 r2538 121396c\n\nAudio\nFormat                         : AAC\nBit rate mode                  : Variable\nBit rate                       : 40.0 Kbps\nChannel(s)                     : 2 channels\nChannel positions              : Front: L R\nSampling rate                  : 48.0 KHz\nStream size                    : 33.1 MiB (8%)\nLanguage                       : English\n\nSubtitle                    : Yes(English)\nSource                      : WEB-DL.DD5.1.H264\n &lt;a href=&quot;\nhttp://someimage.com/yBaL6hL&quot; rel=&quot;nofollow&quot; target=&quot;_NEW&quot;&gt;\nhttp://someimage.com/yBaL6hL&lt;/a&gt; &lt;a href=&quot;\nhttp://someimage.com/I5IauXL&quot; rel=&quot;nofollow&quot; target=&quot;_NEW&quot;&gt;\nhttp://someimage.com/I5IauXL&lt;/a&gt; &lt;a href=&quot;\nhttp://someimage.com/LKMBinU&quot; rel=&quot;nofollow&quot; target=&quot;_NEW&quot;&gt;\nhttp://someimage.com/LKMBinU&lt;/a&gt; &lt;a href=&quot;\nhttp://someimage.com/ctVRqv4&quot; rel=&quot;nofollow&quot; target=&quot;_NEW&quot;&gt;\nhttp://someimage.com/ctVRqv4&lt;/a&gt; &lt;a href=&quot;\nhttp://someimage.com/vCnkYDo&quot; rel=&quot;nofollow&quot; target=&quot;_NEW&quot;&gt;\nhttp://someimage.com/vCnkYDo&lt;/a&gt; &lt;a href=&quot;\nhttp://someimage.com/VRCNub0&quot; rel=&quot;nofollow&quot; target=&quot;_NEW&quot;&gt;\nhttp://someimage.com/VRCNub0&lt;/a&gt; &lt;a href=&quot;\nhttp://someimage.com/cM9sMBK&quot; rel=&quot;nofollow&quot; target=&quot;_NEW&quot;&gt;\nhttp://someimage.com/cM9sMBK&lt;/a&gt; &lt;a href=&quot;\nhttp://someimage.com/tahU7W3&quot; rel=&quot;nofollow&quot; target=&quot;_NEW&quot;&gt;\nhttp://someimage.com/tahU7W3&lt;/a&gt; &lt;a href=&quot;\nhttp://someimage.com/XHAAFGx&quot; rel=&quot;nofollow&quot; target=&quot;_NEW&quot;&gt;\nhttp://someimage.com/XHAAFGx&lt;/a&gt;\n\n\n----------------------------------------------------------------------------------------------------\n\n\nEncoder Notes: Looking For Early Access To Anything You Can Provide DVDScr, R5, DVDR, BluRay, Direct\nAudio, Music Releases and Seedboxes. If You Got anything to offer please contact us","torrent":{"xt":"urn:btih:1cd5bdfbc74afdba37369862e14fca2ddba349b6","amp;dn":"The.Gunman.2015.WEBRip.480p.x264.AAC-VYTO+%5BP2PDL%5D","amp;tr":["udp%3A%2F%2Ftracker.openbittorrent.com%3A80","udp%3A%2F%2Fopen.demonii.com%3A1337","udp%3A%2F%2Ftracker.coppersurfer.tk%3A6969","udp%3A%2F%2Fexodus.desync.com%3A6969"],"infoHash":"1cd5bdfbc74afdba37369862e14fca2ddba349b6","infoHashBuffer":{"type":"Buffer","data":[28,213,189,251,199,74,253,186,55,54,152,98,225,79,202,45,219,163,73,182]},"announce":[],"urlList":[]}}